<svg height="512pt" viewBox="0 0 512 512" width="512pt" xmlns="http://www.w3.org/2000/svg"><path d="m256 0c-141.484375 0-256 114.496094-256 256 0 141.484375 114.496094 256 256 256 141.484375 0 256-114.496094 256-256 0-141.484375-114.496094-256-256-256zm0 472c-119.378906 0-216-96.605469-216-216 0-50.976562 17.550781-99.25 49.773438-137.941406l73.558593 73.558594c.96875 8.296874 3.03125 16.269531 6.042969 23.761718-19.886719 2.816406-38.246094 11.941406-52.699219 26.394532-16.628906 16.628906-26.308593 38.726562-27.25 62.222656-.441406 11.035156 8.144531 20.34375 19.183594 20.785156 11.046875.425781 20.339844-8.144531 20.785156-19.183594.539063-13.417968 6.066407-26.039062 15.566407-35.539062 20.832031-20.835938 54.558593-20.835938 75.390624 0 20.785157 20.785156 20.785157 54.605468 0 75.390625-9.496093 9.5-22.121093 15.03125-35.539062 15.566406-11.035156.445313-19.625 9.75-19.183594 20.789063.433594 10.761718 9.296875 19.195312 19.972656 19.195312.269532 0 .542969-.003906.8125-.015625 23.496094-.945313 45.59375-10.621094 62.222657-27.25 2.65625-2.65625 5.09375-5.445313 7.363281-8.328125 2.265625 2.882812 4.703125 5.671875 7.359375 8.328125 16.628906 16.628906 38.730469 26.304687 62.222656 27.25.273438.011719.546875.015625.816407.015625 10.675781 0 19.535156-8.433594 19.96875-19.195312.125-3.148438-.5-6.140626-1.6875-8.839844l49.261718 49.261718c-38.695312 32.222657-86.964844 49.773438-137.941406 49.773438zm20.171875-167.542969 58.238281 58.238281c-2.222656-.976562-4.652344-1.578124-7.222656-1.679687-13.421875-.539063-26.042969-6.066406-35.542969-15.566406-11.226562-11.230469-16.378906-26.265625-15.472656-40.992188zm146.054687 89.484375-127.078124-127.078125c20.917968-17.554687 52.15625-16.542969 71.890624 3.191407 9.5 9.5 15.027344 22.125 15.566407 35.542968.441406 11.035156 9.761719 19.617188 20.785156 19.179688 11.039063-.441406 19.625-9.746094 19.183594-20.785156-.941407-23.492188-10.621094-45.589844-27.25-62.222657-14.453125-14.453125-32.816407-23.574219-52.699219-26.390625 4.308594-10.726562 6.683594-22.429687 6.683594-34.679687 0-23.515625-8.78125-45.984375-24.726563-63.265625-7.488281-8.117188-20.144531-8.625-28.261719-1.132813-8.117187 7.492188-8.625 20.144531-1.136718 28.261719 9.109375 9.871094 14.125 22.703125 14.125 36.136719 0 27.382812-20.753906 50-47.355469 52.972656l-58.921875-58.925781c1.253906-11.234375 6.027344-21.785156 13.78125-30.183594 7.488281-8.117188 6.980469-20.773438-1.136719-28.261719-8.117187-7.492187-20.769531-6.984375-28.261719 1.132813-6.925781 7.503906-12.492187 15.992187-16.582031 25.113281l-52.773437-52.777344c38.695312-32.21875 86.964844-49.769531 137.941406-49.769531 119.378906 0 216 96.605469 216 216 0 50.976562-17.550781 99.25-49.773438 137.941406zm0 0"/></svg>