<svg height="512pt" viewBox="0 0 512 512" width="512pt" xmlns="http://www.w3.org/2000/svg"><path d="m256 319.601562c59.210938 0 107.382812-48.167968 107.382812-107.378906 0-102.433594-88.789062-201.492187-92.570312-205.660156-3.789062-4.179688-9.167969-6.5625-14.8125-6.5625s-11.023438 2.382812-14.8125 6.5625c-3.78125 4.167969-92.570312 103.230469-92.570312 205.660156 0 59.210938 48.171874 107.378906 107.382812 107.378906zm.019531-267.96875c23.675781 30.953126 67.363281 96.722657 67.363281 160.589844 0 37.152344-30.230468 67.378906-67.382812 67.378906-37.15625 0-67.382812-30.226562-67.382812-67.378906 0-63.675781 43.726562-129.578125 67.402343-160.589844zm235.980469 260.367188h-124.722656c-8.585938 0-16.214844 5.480469-18.953125 13.617188-13.375 39.703124-50.476563 66.382812-92.324219 66.382812s-78.949219-26.679688-92.324219-66.382812c-2.742187-8.136719-10.367187-13.617188-18.953125-13.617188h-124.722656c-11.046875 0-20 8.953125-20 20v160c0 11.046875 8.953125 20 20 20h472c11.046875 0 20-8.953125 20-20v-160c0-11.046875-8.953125-20-20-20zm-20 160h-432v-120h91.171875c22.230469 48.394531 70.714844 80 124.828125 80s102.59375-31.605469 124.828125-80h91.171875zm0 0"/></svg>